<?xml version="1.0" encoding="utf-8"?>
<!-- Generator: Adobe Illustrator 16.0.3, SVG Export Plug-In . SVG Version: 6.00 Build 0)  -->
<!DOCTYPE svg PUBLIC "-//W3C//DTD SVG 1.1//EN" "http://www.w3.org/Graphics/SVG/1.1/DTD/svg11.dtd">
<svg version="1.1" id="Layer_1" xmlns="http://www.w3.org/2000/svg" xmlns:xlink="http://www.w3.org/1999/xlink" x="0px" y="0px"
	 width="34px" height="37.5px" viewBox="0 0 34 37.5" enable-background="new 0 0 34 37.5" xml:space="preserve">
<g>
	<rect x="2" y="2" fill="none" width="7" height="7"/>
	<rect x="2" y="28.5" fill="none" width="7" height="7"/>
	<rect x="2" y="15.5" fill="none" width="7" height="7"/>
	<path fill="#494949" d="M10,0H1C0.448,0,0,0.448,0,1v9c0,0.552,0.448,1,1,1h9c0.552,0,1-0.448,1-1V1C11,0.448,10.552,0,10,0z M9,9
		H2V2h7V9z"/>
	<path fill="#494949" d="M10,13.5H1c-0.552,0-1,0.448-1,1v9c0,0.552,0.448,1,1,1h9c0.552,0,1-0.448,1-1v-9
		C11,13.948,10.552,13.5,10,13.5z M9,22.5H2v-7h7V22.5z"/>
	<path fill="#494949" d="M10,26.5H1c-0.552,0-1,0.448-1,1v9c0,0.552,0.448,1,1,1h9c0.552,0,1-0.448,1-1v-9
		C11,26.948,10.552,26.5,10,26.5z M9,35.5H2v-7h7V35.5z"/>
	<path fill="#494949" d="M16,4.063h17c0.552,0,1-0.448,1-1s-0.448-1-1-1H16c-0.552,0-1,0.448-1,1S15.448,4.063,16,4.063z"/>
	<path fill="#494949" d="M16,7.922h11c0.552,0,1-0.448,1-1s-0.448-1-1-1H16c-0.552,0-1,0.448-1,1S15.448,7.922,16,7.922z"/>
	<path fill="#494949" d="M33,16.063H16c-0.552,0-1,0.448-1,1s0.448,1,1,1h17c0.552,0,1-0.448,1-1S33.552,16.063,33,16.063z"/>
	<path fill="#494949" d="M16,21.922h11c0.552,0,1-0.448,1-1s-0.448-1-1-1H16c-0.552,0-1,0.448-1,1S15.448,21.922,16,21.922z"/>
	<path fill="#494949" d="M33,29.063H16c-0.552,0-1,0.448-1,1s0.448,1,1,1h17c0.552,0,1-0.448,1-1S33.552,29.063,33,29.063z"/>
	<path fill="#494949" d="M27,32.922H16c-0.552,0-1,0.448-1,1s0.448,1,1,1h11c0.552,0,1-0.448,1-1S27.552,32.922,27,32.922z"/>
</g>
</svg>
