<svg xmlns="http://www.w3.org/2000/svg" viewBox="0 0 43.03 50.65"><defs><style>.cls-1{fill:#333;opacity:0.3;}.cls-2{fill:#fff;stroke:#c2c2c2;}.cls-2,.cls-9{stroke-miterlimit:10;}.cls-12,.cls-2{stroke-width:0.5px;}.cls-10,.cls-11,.cls-12,.cls-3,.cls-9{fill:none;}.cls-12,.cls-3{stroke:#e6e6e6;}.cls-10,.cls-11,.cls-12,.cls-3,.cls-7{stroke-linecap:round;stroke-linejoin:round;}.cls-4{fill:#d8b365;}.cls-5{fill:#cf9a90;}.cls-6{fill:#aeb8d3;}.cls-7{fill:#df87f4;stroke:#df87f4;}.cls-8{fill:#c358dd;opacity:0.6;}.cls-9{stroke:#fff;}.cls-10{stroke:#ccc;}.cls-11{stroke:#999;}.cls-13{opacity:0.2;}.cls-14{fill:#44cc6e;}</style></defs><title>1Asset 13</title><g id="Layer_2" data-name="Layer 2"><g id="Layer_1-2" data-name="Layer 1"><rect class="cls-1" x="9.65" y="9.82" width="33.39" height="40.83" rx="3.58" ry="3.58"/><rect class="cls-2" x="5.88" y="6.27" width="33.39" height="40.83" rx="3.58" ry="3.58"/><line class="cls-3" x1="37.46" y1="14.4" x2="37.46" y2="40"/><circle class="cls-4" cx="32.17" cy="9.99" r="0.88"/><path class="cls-5" d="M36.3,10a.88.88,0,1,1-.88-.88A.88.88,0,0,1,36.3,10Z"/><circle class="cls-6" cx="28.92" cy="9.99" r="0.88"/><rect class="cls-7" x="9.45" y="14.86" width="12.21" height="9.67"/><path class="cls-8" d="M19.64,20.42a2,2,0,1,1-2-2A2,2,0,0,1,19.64,20.42Z"/><path class="cls-9" d="M17.18,19.61a2.11,2.11,0,1,1-2.11-2.11A2.11,2.11,0,0,1,17.18,19.61Z"/><line class="cls-10" x1="25.27" y1="14.86" x2="33.7" y2="14.86"/><line class="cls-11" x1="9.31" y1="9.99" x2="24.56" y2="9.99"/><line class="cls-10" x1="25.27" y1="18.09" x2="33.7" y2="18.09"/><line class="cls-10" x1="25.27" y1="21.31" x2="33.7" y2="21.31"/><line class="cls-10" x1="25.27" y1="24.53" x2="33.7" y2="24.53"/><line class="cls-12" x1="9.31" y1="27.32" x2="34.25" y2="27.32"/><line class="cls-12" x1="9.31" y1="42.92" x2="34.25" y2="42.92"/><line class="cls-10" x1="9.31" y1="29.99" x2="33.7" y2="29.99"/><line class="cls-10" x1="9.31" y1="33.21" x2="33.7" y2="33.21"/><line class="cls-10" x1="9.31" y1="36.43" x2="33.7" y2="36.43"/><line class="cls-10" x1="9.31" y1="39.66" x2="33.7" y2="39.66"/><line class="cls-10" x1="37.46" y1="14.4" x2="37.46" y2="18.09"/><path class="cls-13" d="M13.16,5.15H9.45V1.47A.93.93,0,0,0,8.53.54H6.69a.93.93,0,0,0-.92.93V5.15H2.08a.92.92,0,0,0-.92.92V7.92a.92.92,0,0,0,.92.92H5.77v3.68a.92.92,0,0,0,.92.92H8.53a.93.93,0,0,0,.93-.92V8.84h3.7a.92.92,0,0,0,.92-.92V6.07A.92.92,0,0,0,13.16,5.15Z"/><path class="cls-14" d="M11.85,4.55H8.19V.91A.91.91,0,0,0,7.28,0H5.46a.91.91,0,0,0-.91.91V4.55H.91A.91.91,0,0,0,0,5.46V7.28a.91.91,0,0,0,.91.91H4.55v3.63a.91.91,0,0,0,.91.91H7.28a.91.91,0,0,0,.91-.91V8.19h3.66a.91.91,0,0,0,.91-.91V5.46A.91.91,0,0,0,11.85,4.55Z"/></g></g></svg>