<svg xmlns="http://www.w3.org/2000/svg" xmlns:xlink="http://www.w3.org/1999/xlink" aria-hidden="true" focusable="false" width="1.4em" height="1em" style="-ms-transform: rotate(360deg); -webkit-transform: rotate(360deg); transform: rotate(360deg);" preserveAspectRatio="xMidYMid meet" viewBox="0 0 1792 1280"><path d="M1664 704q-152-236-381-353 61 104 61 225 0 185-131.5 316.5T896 1024 579.5 892.5 448 576q0-121 61-225-229 117-381 353 133 205 333.5 326.5T896 1152t434.5-121.5T1664 704zM944 320q0-20-14-34t-34-14q-125 0-214.5 89.5T592 576q0 20 14 34t34 14 34-14 14-34q0-86 61-147t147-61q20 0 34-14t14-34zm848 384q0 34-20 69-140 230-376.5 368.5T896 1280t-499.5-139T20 773Q0 738 0 704t20-69q140-229 376.5-368T896 128t499.5 139T1772 635q20 35 20 69z" fill="#626262"/></svg>