<?xml version="1.0" encoding="utf-8"?>
<!-- Generator: Adobe Illustrator 16.0.0, SVG Export Plug-In . SVG Version: 6.00 Build 0)  -->
<!DOCTYPE svg PUBLIC "-//W3C//DTD SVG 1.1//EN" "http://www.w3.org/Graphics/SVG/1.1/DTD/svg11.dtd">
<svg version="1.1" id="Layer_1" xmlns="http://www.w3.org/2000/svg" xmlns:xlink="http://www.w3.org/1999/xlink" x="0px" y="0px"
	 width="289.552px" height="359.701px" viewBox="0 0 289.552 359.701" enable-background="new 0 0 289.552 359.701"
	 xml:space="preserve">
<g id="XMLID_3_">
	<path id="XMLID_233_" fill="none" stroke="#B3B3B3" stroke-width="2" stroke-miterlimit="10" d="M58.582,101.5V37.843h121.333
		c0,0,12.667-2,22.667,8.667l16.667,17.333c0,0,4.666,5.333,4.666,12.667V101.5H58.582z"/>
	<path id="XMLID_232_" fill="none" stroke="#B3B3B3" stroke-width="2" stroke-miterlimit="10" d="M237.582,151.176h-192
		c-2.75,0-5-2.25-5-5V106.5c0-2.75,2.25-5,5-5h192c2.75,0,5,2.25,5,5v39.676C242.582,148.926,240.332,151.176,237.582,151.176z"/>
	
		<line id="XMLID_235_" fill="none" stroke="#B3B3B3" stroke-width="2" stroke-miterlimit="10" x1="58.582" y1="151.176" x2="58.582" y2="225.176"/>
	
		<line id="XMLID_236_" fill="none" stroke="#B3B3B3" stroke-width="2" stroke-miterlimit="10" x1="76.582" y1="151.176" x2="76.582" y2="209.843"/>
	
		<line id="XMLID_237_" fill="none" stroke="#B3B3B3" stroke-width="2" stroke-miterlimit="10" x1="94.582" y1="151.176" x2="94.582" y2="219.843"/>
	
		<line id="XMLID_238_" fill="none" stroke="#B3B3B3" stroke-width="2" stroke-miterlimit="10" x1="112.582" y1="151.176" x2="112.582" y2="205.51"/>
	
		<line id="XMLID_239_" fill="none" stroke="#B3B3B3" stroke-width="2" stroke-miterlimit="10" x1="130.582" y1="151.176" x2="130.582" y2="193.843"/>
	
		<line id="XMLID_240_" fill="none" stroke="#B3B3B3" stroke-width="2" stroke-miterlimit="10" x1="148.582" y1="151.176" x2="148.582" y2="243.176"/>
	
		<line id="XMLID_241_" fill="none" stroke="#B3B3B3" stroke-width="2" stroke-miterlimit="10" x1="166.582" y1="151.176" x2="166.582" y2="225.176"/>
	
		<line id="XMLID_242_" fill="none" stroke="#B3B3B3" stroke-width="2" stroke-miterlimit="10" x1="184.582" y1="151.176" x2="184.582" y2="188.176"/>
	
		<line id="XMLID_243_" fill="none" stroke="#B3B3B3" stroke-width="2" stroke-miterlimit="10" x1="202.582" y1="151.176" x2="202.582" y2="213.243"/>
	
		<line id="XMLID_244_" fill="none" stroke="#B3B3B3" stroke-width="2" stroke-miterlimit="10" x1="220.582" y1="151.176" x2="220.582" y2="259.176"/>
	
		<line id="XMLID_245_" fill="none" stroke="#B3B3B3" stroke-width="2" stroke-miterlimit="10" x1="238.582" y1="151.176" x2="238.582" y2="205.176"/>
	
		<line id="XMLID_258_" fill="none" stroke="#B3B3B3" stroke-width="2" stroke-miterlimit="10" stroke-dasharray="2" x1="58.582" y1="231.583" x2="58.582" y2="305.583"/>
	
		<line id="XMLID_257_" fill="none" stroke="#B3B3B3" stroke-width="2" stroke-miterlimit="10" stroke-dasharray="2" x1="76.582" y1="215.917" x2="76.582" y2="274.583"/>
	
		<line id="XMLID_256_" fill="none" stroke="#B3B3B3" stroke-width="2" stroke-miterlimit="10" stroke-dasharray="2" x1="94.582" y1="226.583" x2="94.582" y2="295.25"/>
	
		<line id="XMLID_255_" fill="none" stroke="#B3B3B3" stroke-width="2" stroke-miterlimit="10" stroke-dasharray="2" x1="112.582" y1="213.243" x2="112.582" y2="267.576"/>
	
		<line id="XMLID_254_" fill="none" stroke="#B3B3B3" stroke-width="2" stroke-miterlimit="10" stroke-dasharray="2" x1="130.582" y1="200.51" x2="130.582" y2="243.176"/>
	
		<line id="XMLID_253_" fill="none" stroke="#B3B3B3" stroke-width="2" stroke-miterlimit="10" stroke-dasharray="2" x1="148.582" y1="251.583" x2="148.582" y2="294.269"/>
	
		<line id="XMLID_248_" fill="none" stroke="#B3B3B3" stroke-width="2" stroke-miterlimit="10" stroke-dasharray="2" x1="166.582" y1="231.583" x2="166.582" y2="305.583"/>
	
		<line id="XMLID_197_" fill="none" stroke="#B3B3B3" stroke-width="2" stroke-miterlimit="10" stroke-dasharray="2" x1="184.582" y1="195.417" x2="184.582" y2="232.417"/>
	
		<line id="XMLID_23_" fill="none" stroke="#B3B3B3" stroke-width="2" stroke-miterlimit="10" stroke-dasharray="2" x1="202.582" y1="220.55" x2="202.582" y2="282.617"/>
	
		<line id="XMLID_22_" fill="none" stroke="#B3B3B3" stroke-width="2" stroke-miterlimit="10" stroke-dasharray="2" x1="220.582" y1="267.269" x2="220.582" y2="321.269"/>
	
		<line id="XMLID_5_" fill="none" stroke="#B3B3B3" stroke-width="2" stroke-miterlimit="10" stroke-dasharray="2" x1="238.582" y1="213.41" x2="238.582" y2="267.41"/>
	<polyline id="XMLID_246_" fill="none" stroke="#B3B3B3" stroke-width="2" stroke-miterlimit="10" points="76.582,75.176 
		97.916,57.843 117.249,75.176 136.582,57.843 155.249,75.176 173.915,57.843 	"/>
	<polyline id="XMLID_234_" fill="none" stroke="#B3B3B3" stroke-width="2" stroke-miterlimit="10" points="187.964,38.271 
		187.964,75.176 223.915,75.176 	"/>
	
		<circle id="XMLID_247_" fill="none" stroke="#B3B3B3" stroke-width="2" stroke-miterlimit="10" cx="200.249" cy="124.176" r="8.333"/>
	
		<circle id="XMLID_250_" fill="none" stroke="#B3B3B3" stroke-width="2" stroke-miterlimit="10" cx="220.582" cy="124.176" r="8.333"/>
</g>
</svg>
